<svg xmlns="http://www.w3.org/2000/svg" xmlns:xlink="http://www.w3.org/1999/xlink" width="2000" zoomAndPan="magnify" viewBox="0 0 1500 1499.999933" height="2000" preserveAspectRatio="xMidYMid meet" version="1.0"><defs><g/><clipPath id="1eaf6de850"><path d="M 533.300781 750 L 780.695312 750 L 780.695312 997.390625 L 533.300781 997.390625 Z M 533.300781 750 " clip-rule="nonzero"/></clipPath><clipPath id="c7ae10a3d8"><path d="M 656.996094 750 C 588.683594 750 533.300781 805.378906 533.300781 873.695312 C 533.300781 942.011719 588.683594 997.390625 656.996094 997.390625 C 725.3125 997.390625 780.695312 942.011719 780.695312 873.695312 C 780.695312 805.378906 725.3125 750 656.996094 750 Z M 656.996094 750 " clip-rule="nonzero"/></clipPath><clipPath id="4e612442c2"><path d="M 0.300781 0 L 247.695312 0 L 247.695312 247.390625 L 0.300781 247.390625 Z M 0.300781 0 " clip-rule="nonzero"/></clipPath><clipPath id="f00ba7480c"><path d="M 123.996094 0 C 55.683594 0 0.300781 55.378906 0.300781 123.695312 C 0.300781 192.011719 55.683594 247.390625 123.996094 247.390625 C 192.3125 247.390625 247.695312 192.011719 247.695312 123.695312 C 247.695312 55.378906 192.3125 0 123.996094 0 Z M 123.996094 0 " clip-rule="nonzero"/></clipPath><clipPath id="44ad56a8de"><rect x="0" width="248" y="0" height="248"/></clipPath><clipPath id="3bc161c51c"><rect x="0" width="781" y="0" height="1500"/></clipPath></defs><rect x="-150" width="1800" fill="#ffffff" y="-149.999993" height="1799.99992" fill-opacity="1"/><rect x="-150" width="1800" fill="#221f47" y="-149.999993" height="1799.99992" fill-opacity="1"/><g transform="matrix(1, 0, 0, 1, 339, 0.000000000000112861)"><g clip-path="url(#3bc161c51c)"><g clip-path="url(#1eaf6de850)"><g clip-path="url(#c7ae10a3d8)"><g transform="matrix(1, 0, 0, 1, 533, 750)"><g clip-path="url(#44ad56a8de)"><g clip-path="url(#4e612442c2)"><g clip-path="url(#f00ba7480c)"><path fill="#27b789" d="M 0.300781 0 L 247.695312 0 L 247.695312 247.390625 L 0.300781 247.390625 Z M 0.300781 0 " fill-opacity="1" fill-rule="nonzero"/></g></g></g></g></g></g><g fill="#f7f7f8" fill-opacity="1"><g transform="translate(0.419389, 1211.52845)"><g><path d="M 389.765625 0 C 318.898438 0 262.113281 -17.257812 219.40625 -51.78125 C 176.707031 -86.3125 155.359375 -147.640625 155.359375 -235.765625 L 155.359375 -530.140625 L 39.515625 -530.140625 L 39.515625 -675.96875 L 155.359375 -675.96875 L 175.8125 -857.234375 L 329.8125 -857.234375 L 329.8125 -675.96875 L 512.421875 -675.96875 L 512.421875 -530.140625 L 329.8125 -530.140625 L 329.8125 -234.40625 C 329.8125 -201.695312 336.851562 -179.207031 350.9375 -166.9375 C 365.019531 -154.675781 389.320312 -148.546875 423.84375 -148.546875 L 508.34375 -148.546875 L 508.34375 0 Z M 389.765625 0 "/></g></g></g></g></g></svg>