<svg xmlns="http://www.w3.org/2000/svg" xmlns:xlink="http://www.w3.org/1999/xlink" width="2000" zoomAndPan="magnify" viewBox="0 0 1500 1499.999933" height="2000" preserveAspectRatio="xMidYMid meet" version="1.0"><defs><g/><clipPath id="90e6545adf"><rect x="0" width="798" y="0" height="402"/></clipPath></defs><rect x="-150" width="1800" fill="#ffffff" y="-149.999993" height="1799.99992" fill-opacity="1"/><rect x="-150" width="1800" fill="#221f47" y="-149.999993" height="1799.99992" fill-opacity="1"/><g transform="matrix(1, 0, 0, 1, 344, 549)"><g clip-path="url(#90e6545adf)"><g fill="#f7f7f8" fill-opacity="1"><g transform="translate(1.063373, 305.203394)"><g><path d="M 88 0 C 72 0 59.175781 -3.894531 49.53125 -11.6875 C 39.894531 -19.488281 35.078125 -33.335938 35.078125 -53.234375 L 35.078125 -119.703125 L 8.921875 -119.703125 L 8.921875 -152.625 L 35.078125 -152.625 L 39.6875 -193.546875 L 74.46875 -193.546875 L 74.46875 -152.625 L 115.703125 -152.625 L 115.703125 -119.703125 L 74.46875 -119.703125 L 74.46875 -52.921875 C 74.46875 -45.535156 76.054688 -40.457031 79.234375 -37.6875 C 82.410156 -34.925781 87.898438 -33.546875 95.703125 -33.546875 L 114.765625 -33.546875 L 114.765625 0 Z M 88 0 "/></g></g></g><g fill="#f7f7f8" fill-opacity="1"><g transform="translate(108.140934, 305.203394)"><g><path d="M 94.15625 3.6875 C 78.769531 3.6875 65.128906 0.40625 53.234375 -6.15625 C 41.335938 -12.71875 32.003906 -21.945312 25.234375 -33.84375 C 18.460938 -45.738281 15.078125 -59.484375 15.078125 -75.078125 C 15.078125 -90.867188 18.410156 -104.921875 25.078125 -117.234375 C 31.742188 -129.546875 40.972656 -139.132812 52.765625 -146 C 64.566406 -152.875 78.46875 -156.3125 94.46875 -156.3125 C 109.4375 -156.3125 122.664062 -153.03125 134.15625 -146.46875 C 145.644531 -139.90625 154.617188 -130.929688 161.078125 -119.546875 C 167.546875 -108.160156 170.78125 -95.492188 170.78125 -81.546875 C 170.78125 -79.285156 170.726562 -76.921875 170.625 -74.453125 C 170.519531 -71.992188 170.363281 -69.429688 170.15625 -66.765625 L 54.15625 -66.765625 C 54.976562 -54.867188 59.128906 -45.535156 66.609375 -38.765625 C 74.097656 -31.992188 83.175781 -28.609375 93.84375 -28.609375 C 101.84375 -28.609375 108.5625 -30.40625 114 -34 C 119.4375 -37.59375 123.488281 -42.257812 126.15625 -48 L 166.15625 -48 C 163.289062 -38.363281 158.519531 -29.59375 151.84375 -21.6875 C 145.175781 -13.789062 136.972656 -7.585938 127.234375 -3.078125 C 117.492188 1.429688 106.46875 3.6875 94.15625 3.6875 Z M 94.46875 -124.3125 C 84.820312 -124.3125 76.304688 -121.59375 68.921875 -116.15625 C 61.535156 -110.71875 56.816406 -102.460938 54.765625 -91.390625 L 130.78125 -91.390625 C 130.15625 -101.441406 126.457031 -109.441406 119.6875 -115.390625 C 112.925781 -121.335938 104.519531 -124.3125 94.46875 -124.3125 Z M 94.46875 -124.3125 "/></g></g></g><g fill="#27b789" fill-opacity="1"><g transform="translate(273.691814, 305.203394)"><g><path d="M 20 0 L 20 -152.625 L 54.765625 -152.625 L 57.84375 -126.78125 C 62.5625 -135.800781 69.382812 -142.976562 78.3125 -148.3125 C 87.238281 -153.644531 97.75 -156.3125 109.84375 -156.3125 C 128.71875 -156.3125 143.382812 -150.363281 153.84375 -138.46875 C 164.3125 -126.570312 169.546875 -109.132812 169.546875 -86.15625 L 169.546875 0 L 130.15625 0 L 130.15625 -82.46875 C 130.15625 -95.59375 127.488281 -105.640625 122.15625 -112.609375 C 116.820312 -119.585938 108.515625 -123.078125 97.234375 -123.078125 C 86.160156 -123.078125 77.082031 -119.179688 70 -111.390625 C 62.925781 -103.597656 59.390625 -92.722656 59.390625 -78.765625 L 59.390625 0 Z M 20 0 "/></g></g></g><g fill="#27b789" fill-opacity="1"><g transform="translate(442.308809, 305.203394)"><g><path d="M 90.15625 3.6875 C 75.800781 3.6875 62.976562 0.203125 51.6875 -6.765625 C 40.40625 -13.742188 31.484375 -23.285156 24.921875 -35.390625 C 18.359375 -47.492188 15.078125 -61.238281 15.078125 -76.625 C 15.078125 -92.007812 18.359375 -105.703125 24.921875 -117.703125 C 31.484375 -129.703125 40.40625 -139.132812 51.6875 -146 C 62.976562 -152.875 75.800781 -156.3125 90.15625 -156.3125 C 101.644531 -156.3125 111.695312 -154.15625 120.3125 -149.84375 C 128.925781 -145.539062 135.898438 -139.492188 141.234375 -131.703125 L 141.234375 -221.546875 L 180.625 -221.546875 L 180.625 0 L 145.546875 0 L 141.234375 -21.84375 C 136.304688 -15.070312 129.789062 -9.125 121.6875 -4 C 113.59375 1.125 103.082031 3.6875 90.15625 3.6875 Z M 98.46875 -30.765625 C 111.1875 -30.765625 121.59375 -35.019531 129.6875 -43.53125 C 137.789062 -52.050781 141.84375 -62.976562 141.84375 -76.3125 C 141.84375 -89.644531 137.789062 -100.566406 129.6875 -109.078125 C 121.59375 -117.585938 111.1875 -121.84375 98.46875 -121.84375 C 85.945312 -121.84375 75.582031 -117.640625 67.375 -109.234375 C 59.175781 -100.828125 55.078125 -89.957031 55.078125 -76.625 C 55.078125 -63.289062 59.175781 -52.3125 67.375 -43.6875 C 75.582031 -35.070312 85.945312 -30.765625 98.46875 -30.765625 Z M 98.46875 -30.765625 "/></g></g></g><g fill="#27b789" fill-opacity="1"><g transform="translate(624.464481, 305.203394)"><g><path d="M 93.234375 3.6875 C 78.460938 3.6875 65.175781 0.304688 53.375 -6.453125 C 41.582031 -13.222656 32.25 -22.609375 25.375 -34.609375 C 18.507812 -46.617188 15.078125 -60.519531 15.078125 -76.3125 C 15.078125 -92.101562 18.5625 -106 25.53125 -118 C 32.507812 -130 41.894531 -139.382812 53.6875 -146.15625 C 65.488281 -152.925781 78.773438 -156.3125 93.546875 -156.3125 C 108.109375 -156.3125 121.285156 -152.925781 133.078125 -146.15625 C 144.878906 -139.382812 154.210938 -130 161.078125 -118 C 167.953125 -106 171.390625 -92.101562 171.390625 -76.3125 C 171.390625 -60.519531 167.953125 -46.617188 161.078125 -34.609375 C 154.210938 -22.609375 144.828125 -13.222656 132.921875 -6.453125 C 121.023438 0.304688 107.796875 3.6875 93.234375 3.6875 Z M 93.234375 -30.46875 C 103.492188 -30.46875 112.414062 -34.3125 120 -42 C 127.59375 -49.695312 131.390625 -61.132812 131.390625 -76.3125 C 131.390625 -91.488281 127.59375 -102.921875 120 -110.609375 C 112.414062 -118.304688 103.597656 -122.15625 93.546875 -122.15625 C 83.078125 -122.15625 74.097656 -118.304688 66.609375 -110.609375 C 59.128906 -102.921875 55.390625 -91.488281 55.390625 -76.3125 C 55.390625 -61.132812 59.128906 -49.695312 66.609375 -42 C 74.097656 -34.3125 82.972656 -30.46875 93.234375 -30.46875 Z M 93.234375 -30.46875 "/></g></g></g></g></g></svg>