<svg xmlns="http://www.w3.org/2000/svg" xmlns:xlink="http://www.w3.org/1999/xlink" width="2000" zoomAndPan="magnify" viewBox="0 0 1500 1499.999933" height="2000" preserveAspectRatio="xMidYMid meet" version="1.0"><defs><g/><clipPath id="359f80edce"><path d="M 533.300781 750 L 780.695312 750 L 780.695312 997.390625 L 533.300781 997.390625 Z M 533.300781 750 " clip-rule="nonzero"/></clipPath><clipPath id="3bca12ccca"><path d="M 656.996094 750 C 588.683594 750 533.300781 805.378906 533.300781 873.695312 C 533.300781 942.011719 588.683594 997.390625 656.996094 997.390625 C 725.3125 997.390625 780.695312 942.011719 780.695312 873.695312 C 780.695312 805.378906 725.3125 750 656.996094 750 Z M 656.996094 750 " clip-rule="nonzero"/></clipPath><clipPath id="a24e52bec8"><path d="M 0.300781 0 L 247.695312 0 L 247.695312 247.390625 L 0.300781 247.390625 Z M 0.300781 0 " clip-rule="nonzero"/></clipPath><clipPath id="4841809543"><path d="M 123.996094 0 C 55.683594 0 0.300781 55.378906 0.300781 123.695312 C 0.300781 192.011719 55.683594 247.390625 123.996094 247.390625 C 192.3125 247.390625 247.695312 192.011719 247.695312 123.695312 C 247.695312 55.378906 192.3125 0 123.996094 0 Z M 123.996094 0 " clip-rule="nonzero"/></clipPath><clipPath id="d4117c3ff0"><rect x="0" width="248" y="0" height="248"/></clipPath><clipPath id="436a96c7c5"><path d="M 0.359375 0 L 533 0 L 533 1500 L 0.359375 1500 Z M 0.359375 0 " clip-rule="nonzero"/></clipPath><clipPath id="33c934f1ed"><rect x="0" width="533" y="0" height="1500"/></clipPath><clipPath id="bc9075df38"><rect x="0" width="781" y="0" height="1500"/></clipPath></defs><rect x="-150" width="1800" fill="#ffffff" y="-149.999993" height="1799.99992" fill-opacity="1"/><rect x="-150" width="1800" fill="#ffffff" y="-149.999993" height="1799.99992" fill-opacity="1"/><g transform="matrix(1, 0, 0, 1, 339, 0.000000000000112861)"><g clip-path="url(#bc9075df38)"><g clip-path="url(#359f80edce)"><g clip-path="url(#3bca12ccca)"><g transform="matrix(1, 0, 0, 1, 533, 750)"><g clip-path="url(#d4117c3ff0)"><g clip-path="url(#a24e52bec8)"><g clip-path="url(#4841809543)"><path fill="#27b789" d="M 0.300781 0 L 247.695312 0 L 247.695312 247.390625 L 0.300781 247.390625 Z M 0.300781 0 " fill-opacity="1" fill-rule="nonzero"/></g></g></g></g></g></g><g clip-path="url(#436a96c7c5)"><g transform="matrix(1, 0, 0, 1, 0, 0.000000000000112861)"><g clip-path="url(#33c934f1ed)"><g fill="#221f47" fill-opacity="1"><g transform="translate(0.419418, 1214.249494)"><g><path d="M 389.78125 0 C 318.914062 0 262.128906 -17.257812 219.421875 -51.78125 C 176.722656 -86.3125 155.375 -147.644531 155.375 -235.78125 L 155.375 -530.171875 L 39.53125 -530.171875 L 39.53125 -676 L 155.375 -676 L 175.8125 -857.265625 L 329.8125 -857.265625 L 329.8125 -676 L 512.453125 -676 L 512.453125 -530.171875 L 329.8125 -530.171875 L 329.8125 -234.421875 C 329.8125 -201.710938 336.851562 -179.222656 350.9375 -166.953125 C 365.019531 -154.691406 389.328125 -148.5625 423.859375 -148.5625 L 508.359375 -148.5625 L 508.359375 0 Z M 389.78125 0 "/></g></g></g></g></g></g></g></g></svg>